# xmcd CD database file
#
# Track frame offsets:
#	150
#	11260
#	23270
#	35185
#	44827
#	56837
#	68312
#	85962
#	101840
#	113054
#	125618
#	143018
#	159524
#	173319
#	187437
#	203217
#	217243
#	235227
#	247760
#	259733
#	280975
#	294225
#
# Disc length: 4074 seconds
#
# Revision: 0
# Processed by: cddbd v1.5.2PL0 Copyright (c) Steve Scherf et al.
# Submitted via: ACXtractor (MTCDDB.DLL V2003.07.15)
#
DISCID=3c0fe816
DTITLE=Mixed - The Love Collection
DYEAR=1987
DGENRE=Country
TTITLE0=Billie Jo Spears /If It Ain't Love
TTITLE1=Billie Jo Spears /My Own Kind
TTITLE2=Billie Jo Spears /Ease the want in Me
TTITLE3=Billie Jo Spears /Danny
TTITLE4=Dusty Springfield - Will You Love me Tomorrow
TTITLE5=Dusty Springfield /Some of the Loving
TTITLE6=Dusty Springfield /If You go Away
TTITLE7=Dusty Springfield/ Goin' Back
TTITLE8=Dusty Springfield/ Morning Please don't Come
TTITLE9=Dusty Springfield/ How Can I be Sure
TTITLE10=Dusty Springfield /I Can't make it Alone
TTITLE11=Dusty Springfield /Yesterday when I Was Young
TTITLE12=Emmylou Harris - One of These Days
TTITLE13=Emmylou Harris /Easy from Now On
TTITLE14=Emmlou Harris - Too Far Gone
TTITLE15=Emmylou Harris /Two More Bottles of Wine
TTITLE16=Emmylou Harris /Hello Stranger
TTITLE17=Nat King Cole /Let there be Love
TTITLE18=Peter and Gordon /True Love Ways
TTITLE19=Peter Sarsted /Where do You go to My Lovely
TTITLE20=Shirley Bassey - What Now My Love
TTITLE21=Mike Sammes Singers /Somwhere My Love
EXTD=ID3G:   2 YEAR: 1987
EXTT0=
EXTT1=
EXTT2=
EXTT3=
EXTT4=
EXTT5=
EXTT6=
EXTT7=
EXTT8=
EXTT9=
EXTT10=
EXTT11=
EXTT12=
EXTT13=
EXTT14=
EXTT15=
EXTT16=
EXTT17=
EXTT18=
EXTT19=
EXTT20=
EXTT21=
PLAYORDER=
